<svg width="44" height="45" viewBox="0 0 44 45" fill="none" xmlns="http://www.w3.org/2000/svg">
<path d="M43.5 22.4909C43.5 34.1581 33.8819 43.6303 22 43.6303C10.1181 43.6303 0.5 34.1581 0.5 22.4909C0.5 10.8237 10.1181 1.35156 22 1.35156C33.8819 1.35156 43.5 10.8237 43.5 22.4909Z" fill="#FEDA2C" stroke="black"/>
<ellipse cx="21.9992" cy="22.4914" rx="16.9231" ry="16.6457" fill="#FCAA17"/>
<path d="M19.776 21.9C19.8189 21.3815 20.2523 20.9824 20.7726 20.9824H29.3171C30.1394 20.9824 30.6102 21.9196 30.1194 22.5793L20.5069 35.4993C19.9067 36.306 18.6251 35.822 18.708 34.82L19.776 21.9Z" fill="#FEDA2C"/>
<path d="M24.222 23.9144C24.1792 24.433 23.7458 24.832 23.2254 24.832H14.681C13.8587 24.832 13.3878 23.8948 13.8787 23.2351L23.4912 10.3152C24.0913 9.5085 25.3729 9.99245 25.2901 10.9945L24.222 23.9144Z" fill="#FEDA2C"/>
<path d="M20.7294 21.6582L27.0741 21.824L25.8063 25.4035L20.2188 26.7941L20.3063 24.1551L20.7294 21.6582Z" fill="#FEDA2C"/>
</svg>
