<svg width="28" height="28" viewBox="0 0 28 28" fill="none" xmlns="http://www.w3.org/2000/svg">
<circle cx="14" cy="14" r="13.5" fill="#FEDA2C" stroke="black"/>
<circle cx="13.9997" cy="13.9997" r="10.7692" fill="#FCAA17"/>
<path d="M12.5572 13.9434C12.5994 13.4242 13.0331 13.0244 13.5539 13.0244H17.9509C18.7696 13.0244 19.2414 13.9543 18.7579 14.615L13.8113 21.3744C13.2155 22.1885 11.9258 21.7083 12.0076 20.7028L12.5572 13.9434Z" fill="#FEDA2C"/>
<path d="M15.4408 14.5957C15.3986 15.1148 14.965 15.5146 14.4441 15.5146L10.0471 15.5146C9.22849 15.5146 8.75669 14.5847 9.24015 13.9241L14.1867 7.16468C14.7825 6.35053 16.0722 6.83074 15.9904 7.83628L15.4408 14.5957Z" fill="#FEDA2C"/>
<path d="M13.1922 13.4619L17.2297 13.5692L16.4229 15.885L12.8672 16.7847L12.9229 15.0773L13.1922 13.4619Z" fill="#FEDA2C"/>
</svg>
