<svg width="30" height="30" viewBox="0 0 30 30" fill="none" xmlns="http://www.w3.org/2000/svg">
<circle cx="15" cy="15" r="14.5" fill="#FEDA2C" stroke="black"/>
<circle cx="14.9994" cy="14.9994" r="11.5385" fill="#FCAA17"/>
<path d="M13.4622 14.874C13.5044 14.3549 13.938 13.9551 14.4589 13.9551H19.3766C20.1952 13.9551 20.667 14.885 20.1835 15.5456L14.6511 23.1055C14.0553 23.9197 12.7657 23.4395 12.8474 22.4339L13.4622 14.874Z" fill="#FEDA2C"/>
<path d="M16.5398 15.7041C16.4976 16.2232 16.0639 16.623 15.5431 16.623H10.6254C9.80676 16.623 9.33495 15.6931 9.81841 15.0325L15.3508 7.47259C15.9466 6.65845 17.2363 7.13866 17.1545 8.1442L16.5398 15.7041Z" fill="#FEDA2C"/>
<path d="M14.1353 14.4238L18.4612 14.5388L17.5968 17.02L13.7871 17.984L13.8468 16.1546L14.1353 14.4238Z" fill="#FEDA2C"/>
</svg>
