<svg width="26" height="48" viewBox="0 0 26 48" fill="none" xmlns="http://www.w3.org/2000/svg">
<path d="M10.43 21.9631C10.4494 21.702 10.6669 21.5 10.9287 21.5H24.1315C24.5308 21.5 24.769 21.9451 24.5475 22.2773L9.69434 44.5571C9.40918 44.9848 8.7417 44.7555 8.77968 44.2428L10.43 21.9631Z" fill="#FFC107" stroke="black"/>
<path d="M15.57 26.0369C15.5506 26.298 15.3331 26.5 15.0713 26.5L1.86852 26.5C1.46917 26.5 1.23098 26.0549 1.45249 25.7227L16.3057 3.4429C16.5908 3.01516 17.2583 3.24451 17.2203 3.75719L15.57 26.0369Z" fill="#FFC107" stroke="black"/>
<path d="M11 22H19V28H10.5L11 22Z" fill="#FFC107"/>
</svg>
