<svg width="68" height="60" viewBox="0 0 68 60" fill="none" xmlns="http://www.w3.org/2000/svg">
<path d="M0.5 19C0.5 17.6193 1.61929 16.5 3 16.5H15.3801V43.5H3C1.61929 43.5 0.5 42.3807 0.5 41V19Z" fill="white" stroke="black"/>
<path d="M15.0566 17.6698C15.0566 16.8046 15.504 16.0009 16.2392 15.545L36.0444 3.26524C37.7098 2.23262 39.8618 3.43039 39.8618 5.38996V54.61C39.8618 56.5696 37.7098 57.7674 36.0444 56.7348L16.2392 44.455C15.504 43.9991 15.0566 43.1954 15.0566 42.3302V17.6698Z" fill="white" stroke="black"/>
<rect x="0.704442" width="5.64173" height="26.8953" rx="1.5" transform="matrix(0.704442 -0.709762 0.704442 0.709762 43.8781 23.8808)" fill="white" stroke="black"/>
<rect y="0.709762" width="5.64173" height="26.8953" rx="1.5" transform="matrix(0.704442 0.709762 -0.704442 0.709762 63.8203 18.874)" fill="white" stroke="black"/>
<rect x="51.7363" y="30.0918" width="4.61" height="9.23382" transform="rotate(-45 51.7363 30.0918)" fill="white"/>
</svg>
