<svg width="80" height="80" viewBox="0 0 80 80" fill="none" xmlns="http://www.w3.org/2000/svg">
<circle cx="40" cy="40" r="40" fill="#46C85E"/>
<path d="M57.2012 22.986C58.9778 20.872 62.1317 20.5984 64.2458 22.375L65.0113 23.0184C67.1254 24.795 67.3989 27.949 65.6223 30.063L43.0287 56.948C41.2521 59.062 38.0981 59.3355 35.984 57.5589L31.3907 53.6988L57.2012 22.986Z" fill="white"/>
<path d="M20.8887 44.7924C18.7799 43.0097 18.5155 39.8549 20.2983 37.7461L20.9439 36.9824C22.7267 34.8736 25.8815 34.6092 27.9903 36.392L43.8331 49.7853L37.3771 57.422C37.0206 57.8438 36.3896 57.8967 35.9678 57.5401L20.8887 44.7924Z" fill="white"/>
</svg>
