<svg width="68" height="60" viewBox="0 0 68 60" fill="none" xmlns="http://www.w3.org/2000/svg">
<path d="M0.5 19C0.5 17.6193 1.61929 16.5 3 16.5H16.1531V43.5H3C1.61929 43.5 0.5 42.3807 0.5 41V19Z" fill="white" stroke="black"/>
<path d="M15.7656 17.7114C15.7656 16.8275 16.2324 16.0093 16.9933 15.5594L38.0545 3.1069C39.721 2.12156 41.8268 3.32286 41.8268 5.2589V54.7411C41.8268 56.6771 39.721 57.8784 38.0545 56.8931L16.9933 44.4406C16.2324 43.9907 15.7656 43.1725 15.7656 42.2886V17.7114Z" fill="white" stroke="black"/>
<rect x="58.7852" y="11.167" width="8.71429" height="39" rx="2.5" fill="white" stroke="black"/>
<rect x="46.2969" y="16.5" width="8.71429" height="27" rx="2.5" fill="white" stroke="black"/>
</svg>
